<?xml version="1.0" encoding="UTF-8"?>
<svg width="48px" height="37px" viewBox="0 0 48 37" version="1.1" xmlns="http://www.w3.org/2000/svg" xmlns:xlink="http://www.w3.org/1999/xlink">
    <!-- Generator: Sketch 46.2 (44496) - http://www.bohemiancoding.com/sketch -->
    <title>ic__sass</title>
    <desc>Created with Sketch.</desc>
    <defs></defs>
    <g id="Page-1" stroke="none" stroke-width="1" fill="none" fill-rule="evenodd">
        <g id="mobile" transform="translate(-40.000000, -5767.000000)">
            <g id="skill" transform="translate(0.000000, 5262.000000)">
                <g id="skill__item" transform="translate(16.000000, 112.000000)">
                    <g id="skill__sass" transform="translate(0.000000, 387.000000)">
                        <g id="ic__sass" transform="translate(24.000000, 0.000000)">
                            <rect id="bg" x="0" y="0" width="48" height="48"></rect>
                            <path d="M41.3192982,26.7230303 C39.6444444,26.7325182 38.194152,27.1363636 36.9777778,27.7376697 C36.528655,26.8452455 36.0795322,26.0654545 36.0047719,25.4831242 C35.9205614,24.8067606 35.8176374,24.3933333 35.9205614,23.5855485 C36.0233918,22.7775758 36.4912281,21.6315152 36.4912281,21.5375758 C36.4817778,21.4530303 36.3882105,21.039697 35.4245614,21.030303 C34.4609123,21.0209091 33.6280702,21.2181818 33.5345029,21.4718182 C33.4409357,21.7254545 33.2538012,22.3078788 33.1321637,22.9090909 C32.9637427,23.7921212 31.2046784,26.920303 30.2035088,28.5642424 C29.8760234,27.9254545 29.5953216,27.3618182 29.5390877,26.9108152 C29.4549708,26.2345455 29.3519532,25.8211182 29.4549708,25.0133333 C29.5578947,24.2053606 30.025731,23.0593939 30.025731,22.9654545 C30.0163743,22.8809091 29.922807,22.4675758 28.9591579,22.4581818 C27.9953216,22.4487879 27.1626667,22.6460606 27.0690994,22.899697 C26.9755322,23.1533333 26.8726082,23.7545455 26.6667602,24.3369697 C26.4701754,24.9193939 24.1309942,30.1424242 23.522807,31.5045455 C23.2140351,32.199697 22.9427836,32.7539394 22.7461988,33.129697 C22.5497076,33.5054545 22.7368421,33.1578788 22.7181287,33.1954545 C22.5497076,33.5148485 22.4561404,33.6933333 22.4561404,33.6933333 L22.4561404,33.7028212 C22.3251462,33.9376697 22.1847953,34.1630303 22.1192047,34.1630303 C22.0724211,34.1630303 21.9788538,33.5336364 22.1379181,32.6694879 C22.484117,30.8563636 23.3262222,28.0288818 23.3169591,27.9255485 C23.3169591,27.8785788 23.4759298,27.3806061 22.7741754,27.1270636 C22.0911345,26.8734273 21.8479532,27.2961545 21.7917193,27.2961545 C21.7355789,27.2961545 21.6887953,27.4464576 21.6887953,27.4464576 C21.6887953,27.4464576 22.4466901,24.2620061 20.2385029,24.2620061 C18.8537076,24.2620061 16.9449357,25.7744303 15.9999064,27.1553394 C15.401076,27.4841273 14.1285614,28.1791848 12.781193,28.9214 C12.2665731,29.2032182 11.7332398,29.5038242 11.2279766,29.7762485 L11.1251462,29.6633333 C8.44912281,26.7981818 3.4994152,24.7690909 3.70526316,20.9175758 C3.78011696,19.5178788 4.26666667,15.8260606 13.2117895,11.3545455 C20.5381053,7.69090909 26.4047719,8.69606061 27.4245614,10.9318182 C28.8748538,14.1257576 24.2900585,20.0627273 16.6737778,20.9175758 C13.773193,21.2463636 12.2479532,20.1190909 11.8644211,19.6963636 C11.4620819,19.2548485 11.4059415,19.2360606 11.2562339,19.3206061 C11.0129591,19.4521212 11.1626667,19.8466667 11.2562339,20.0815152 C11.4807953,20.6733333 12.4164678,21.7254545 14.0071111,22.2515152 C15.4011696,22.7118182 18.8071111,22.9654545 22.9240702,21.3684848 C27.5369357,19.5742424 31.1392749,14.5954545 30.0819649,10.4339394 C29.0059415,6.19727273 22.0071111,4.8069697 15.3919064,7.16484848 C11.4526316,8.57393939 7.18596491,10.7721212 4.11695906,13.6560606 C0.467836257,17.0754545 -0.112280702,20.0627273 0.130994152,21.3027273 C0.982549708,25.7272727 7.05497076,28.6112121 9.4877193,30.7436364 C9.36608187,30.8093 9.25380117,30.8750576 9.15087719,30.9315152 C7.93450292,31.5326333 3.30292398,33.9657576 2.14269006,36.539603 C0.832748538,39.4517242 2.34853801,41.5466667 3.35906433,41.8284848 C6.48421053,42.7021212 9.68421053,41.1333333 11.4152047,38.55 C13.1367485,35.9666667 12.9309942,32.6130303 12.1356725,31.0818182 L12.1075088,31.0254545 L13.0618947,30.4618182 C13.6795322,30.0954545 14.2877193,29.7572727 14.8209591,29.4659667 C14.5216374,30.2832394 14.3063392,31.2508152 14.194152,32.6599061 C14.0631579,34.3133333 14.7368421,36.4550576 15.625731,37.3005121 C16.0187135,37.6667818 16.4865497,37.6762697 16.7766082,37.6762697 C17.805848,37.6762697 18.2736842,36.8213273 18.7883041,35.7974818 C19.4245614,34.5480879 19.9859649,33.1014212 19.9859649,33.1014212 C19.9859649,33.1014212 19.2842105,37.0186939 21.2023392,37.0186939 C21.9040936,37.0186939 22.605848,36.1074818 22.9239766,35.6377848 L22.9239766,35.6471788 C22.9239766,35.6471788 22.9426901,35.618997 22.980117,35.5532394 C23.0193765,35.4949585 23.0568215,35.4354662 23.0923977,35.3748485 L23.0923977,35.3560606 C23.3730994,34.8675758 24,33.749697 24.9356725,31.8990909 C26.1425965,29.5130303 27.302924,26.5257576 27.302924,26.5257576 C27.302924,26.5257576 27.4152047,27.2584848 27.7614035,28.4609091 C27.9671579,29.1749424 28.4162807,29.9545455 28.7624795,30.7154545 C28.4817778,31.11 28.3133567,31.3355485 28.3133567,31.3355485 L28.3227135,31.3449424 C28.0982456,31.6455485 27.8455205,31.9650364 27.5836257,32.2843364 C26.6292398,33.430397 25.4877193,34.7362485 25.3380117,35.1120061 C25.1602339,35.5534273 25.1976608,35.8822152 25.5438596,36.1453394 C25.7964912,36.3332182 26.245614,36.3707 26.722807,36.3332182 C27.5836257,36.2767606 28.1824561,36.0607939 28.4818713,35.9291848 C28.9497076,35.7600939 29.4830409,35.5064576 29.9976608,35.1307 C30.9333333,34.4356424 31.5040936,33.4492788 31.4479532,32.1341273 C31.419883,31.4107939 31.1859649,30.6968545 30.8959064,30.0204909 C30.980117,29.8983697 31.0644211,29.7761545 31.148538,29.6447333 C32.6269006,27.4746394 33.7684211,25.0886727 33.7684211,25.0886727 C33.7684211,25.0886727 33.8807018,25.8214 34.2269006,27.0238242 C34.4045848,27.6344303 34.7602339,28.3014939 35.0783626,28.9590697 C33.6935673,30.0957364 32.8233918,31.4108879 32.5239766,32.2751303 C31.9719298,33.8721 32.4023392,34.5954333 33.2163743,34.7645242 C33.581193,34.8396758 34.1052632,34.6705848 34.498152,34.5014939 C34.9847018,34.341797 35.5741754,34.0692788 36.1169591,33.6654333 C37.0526316,32.9702818 37.9508772,32.0027061 37.9040936,30.6969485 C37.8760234,30.0957364 37.7169591,29.5039182 37.5017544,28.9402818 C38.6807018,28.451797 40.2057544,28.1699788 42.1426901,28.4048273 C46.3064327,28.8933121 47.1298246,31.5048273 46.9708538,32.5945242 C46.8117895,33.6843152 45.941614,34.2854333 45.651462,34.4733121 C45.3614035,34.651797 45.2678363,34.7176485 45.2959064,34.8490697 C45.3333333,35.0464364 45.4643275,35.0369485 45.7169591,34.9994667 C46.0631579,34.9430091 47.9064327,34.1070424 47.9812865,32.0968333 C48.0935673,29.5131242 45.651462,26.6949424 41.3192982,26.7230303 L41.3192982,26.7230303 Z M9.20701754,37.5918182 C7.83157895,39.1042424 5.89473684,39.6772727 5.07134503,39.1887879 C4.18245614,38.6721212 4.5285614,36.4457576 6.22222222,34.8393939 C7.25146199,33.8624242 8.58947368,32.9606061 9.46900585,32.4063636 C9.66549708,32.2842424 9.96491228,32.1058515 10.3204678,31.889697 C10.3766082,31.8522152 10.4140351,31.8333333 10.4140351,31.8333333 C10.4795322,31.7957576 10.554386,31.7487879 10.6292398,31.7018182 C11.2561404,33.9939394 10.6573099,36.0042424 9.20701754,37.5918182 L9.20701754,37.5918182 Z M19.2654971,30.7248485 C18.7883041,31.8990909 17.7777778,34.9145455 17.1695906,34.7454545 C16.6455205,34.6045455 16.3274854,32.3218182 17.0665731,30.0672727 C17.4408421,28.9305121 18.2361637,27.5778788 18.704,27.0517242 C19.4619883,26.2062697 20.2852865,25.9244515 20.4912281,26.2720273 C20.7345029,26.7230303 19.5649123,29.9921212 19.2654971,30.7248485 Z M27.5649123,34.7078788 C27.3590643,34.8113061 27.1719298,34.8863636 27.0877193,34.8300939 C27.0222222,34.7925182 27.1718363,34.6516091 27.1718363,34.6516091 C27.1718363,34.6516091 28.2104327,33.5337303 28.6221287,33.0170636 C28.8560468,32.7165515 29.1367485,32.3689758 29.4361637,31.9743364 L29.4361637,32.0870636 C29.4362573,33.439697 28.1450292,34.3415152 27.5649123,34.7078788 Z M33.9648187,33.2424242 C33.8151111,33.129697 33.8339181,32.7821212 34.3390877,31.6924242 C34.5356725,31.260303 34.9847018,30.5369697 35.7613099,29.8512121 C35.8548772,30.1330303 35.9111111,30.4053606 35.9016608,30.6590909 C35.8923977,32.35 34.6947368,32.9793939 33.9648187,33.2424242 Z" id="Shape" fill="#CF649A" fill-rule="nonzero"></path>
                        </g>
                    </g>
                </g>
            </g>
        </g>
    </g>
</svg>