<?xml version="1.0" encoding="UTF-8"?>
<svg width="48px" height="48px" viewBox="0 0 48 48" version="1.1" xmlns="http://www.w3.org/2000/svg" xmlns:xlink="http://www.w3.org/1999/xlink">
    <!-- Generator: Sketch 46.2 (44496) - http://www.bohemiancoding.com/sketch -->
    <title>ic__jquery</title>
    <desc>Created with Sketch.</desc>
    <defs></defs>
    <g id="Page-1" stroke="none" stroke-width="1" fill="none" fill-rule="evenodd">
        <g id="mobile" transform="translate(-40.000000, -5694.000000)" fill-rule="nonzero" fill="#21609B">
            <g id="skill" transform="translate(0.000000, 5262.000000)">
                <g id="skill__item" transform="translate(16.000000, 112.000000)">
                    <g id="skill__jquery" transform="translate(0.000000, 320.000000)">
                        <g id="ic__jquery" transform="translate(24.000000, 0.000000)">
                            <path d="M46.2455462,35.0365586 L46.0350827,35.5871697 C42.4488264,42.6362601 36.0935614,46.9608295 27.0289715,47.1515883 C22.7914302,47.239834 18.7538815,46.1423107 16.1162816,44.9491439 C10.4243432,42.367824 5.6365602,37.5808892 3.02199614,32.4663356 C-0.728652027,25.1345417 -1.40506708,14.9355542 6.39360057,7.31788648 C6.51401502,7.31788648 5.44756187,8.96971981 5.56797632,8.96971981 L5.35332448,9.67462885 C-0.26636527,27.4326298 17.0476612,42.6510558 33.8784592,40.9104484 C37.9233375,40.4919416 43.081264,38.2562069 46.2455462,35.0365586 Z M36.0605784,27.693668 C40.2949785,27.722731 44.7178533,25.7253126 47.3371293,22.9210005 C45.0455901,28.7917198 38.4107542,32.5651496 29.5136974,31.3651133 C22.0637081,30.3590063 14.967109,22.7925951 14.2362457,15.2108598 C13.7017102,9.69312347 15.6068762,6.40002516 18.7465519,2.40518832 C17.6554923,4.4945514 17.2476539,6.10569657 17.1460869,7.13346875 C15.9534604,19.0693649 26.5928618,27.6307864 36.0605784,27.693668 Z M46.9114904,12.8683847 C46.2533993,14.3923409 42.4634855,17.270103 40.7897248,17.6299554 C34.1622185,19.0550976 29.9178711,15.8830069 27.6943922,12.2733865 C27.3640378,11.7344005 26.7530654,10.2622292 26.6436453,9.88758113 C25.7813732,6.92844273 26.1776937,2.4527459 28.749851,0.136163265 C27.9750102,2.33913612 27.8619253,4.897734 28.2697638,6.56119252 C28.5168752,7.56677116 29.2697272,9.32270275 30.0231028,10.4270955 C31.3937333,12.4387812 32.263335,12.9275674 34.0240036,13.9960278 C34.8171683,14.4768877 35.6679226,14.8626326 36.0354484,14.9683161 C37.7050208,15.4645002 41.2300228,16.7712768 46.9120139,12.8683847 L46.9114904,12.8683847 Z" id="Combined-Shape"></path>
                        </g>
                    </g>
                </g>
            </g>
        </g>
    </g>
</svg>