<?xml version="1.0" encoding="UTF-8"?>
<svg width="48px" height="48px" viewBox="0 0 48 48" version="1.1" xmlns="http://www.w3.org/2000/svg" xmlns:xlink="http://www.w3.org/1999/xlink">
    <!-- Generator: Sketch 46.2 (44496) - http://www.bohemiancoding.com/sketch -->
    <title>ic_illustrator</title>
    <desc>Created with Sketch.</desc>
    <defs>
        <linearGradient x1="99.4791764%" y1="-0.532117795%" x2="1.47587539%" y2="99.5563199%" id="linearGradient-1">
            <stop stop-color="#FFAA2A" offset="0%"></stop>
            <stop stop-color="#FFC06C" offset="100%"></stop>
        </linearGradient>
        <linearGradient x1="50%" y1="-0.167929293%" x2="50%" y2="99.495202%" id="linearGradient-2">
            <stop stop-color="#231100" offset="0%"></stop>
            <stop stop-color="#020100" offset="100%"></stop>
        </linearGradient>
    </defs>
    <g id="Page-1" stroke="none" stroke-width="1" fill="none" fill-rule="evenodd">
        <g id="mobile" transform="translate(-40.000000, -5478.000000)" fill-rule="nonzero">
            <g id="skill" transform="translate(0.000000, 5262.000000)">
                <g id="skill__item" transform="translate(16.000000, 112.000000)">
                    <g id="skill__illustrator" transform="translate(0.000000, 104.000000)">
                        <g id="ic_illustrator" transform="translate(24.000000, 0.000000)">
                            <polygon id="Shape" fill="url(#linearGradient-1)" points="0 0 48 0 48 48 0 48"></polygon>
                            <path d="M4,4 L4,44 L44,44 L44,4 L4,4 Z M18.2168,26.2103 L22.4647,26.2103 L20.3408,17.9732 L18.2168,26.2103 Z M24.796,35.2418 L23.2418,29.8886 L17.4914,29.8886 L15.9372,35.2418 L12,35.2418 L17.5432,16.3155 L17.5432,14.2433 L22.8274,14.2433 L29.1476,35.2418 L24.796,35.2418 L24.796,35.2418 Z M35.2609,35.2418 L31.0129,35.2418 L31.0129,19.2685 L35.2609,19.2685 L35.2609,35.2418 Z M33.1626,17.3517 C31.9466,17.3517 30.9607,16.3775 30.9607,15.1759 C30.9607,13.9742 31.9464,13 33.1626,13 C34.3788,13 35.3644,13.9742 35.3644,15.1759 C35.3644,16.3775 34.3787,17.3517 33.1626,17.3517 Z" id="Shape" fill="url(#linearGradient-2)"></path>
                        </g>
                    </g>
                </g>
            </g>
        </g>
    </g>
</svg>