<?xml version="1.0" encoding="UTF-8"?>
<svg width="48px" height="48px" viewBox="0 0 48 48" version="1.1" xmlns="http://www.w3.org/2000/svg" xmlns:xlink="http://www.w3.org/1999/xlink">
    <!-- Generator: Sketch 46.2 (44496) - http://www.bohemiancoding.com/sketch -->
    <title>service__icon</title>
    <desc>Created with Sketch.</desc>
    <defs></defs>
    <g id="Page-1" stroke="none" stroke-width="1" fill="none" fill-rule="evenodd">
        <g id="mobile" transform="translate(-156.000000, -784.000000)">
            <g id="service" transform="translate(0.000000, 640.000000)">
                <g id="service__item_gui" transform="translate(16.000000, 112.000000)">
                    <g id="service__icon" transform="translate(140.000000, 32.000000)">
                        <circle id="ic__bg" fill="#4A4A4A" cx="24" cy="24" r="24"></circle>
                        <g id="ic__gui" transform="translate(12.000000, 12.000000)">
                            <path d="M18,4 L18,3 C18,2.45 17.55,2 17,2 L5,2 C4.45,2 4,2.45 4,3 L4,7 C4,7.55 4.45,8 5,8 L17,8 C17.55,8 18,7.55 18,7 L18,6 L19,6 L19,10 L9,10 L9,21 C9,21.55 9.45,22 10,22 L12,22 C12.55,22 13,21.55 13,21 L13,12 L21,12 L21,4 L18,4 Z" fill="#FFFFFF" fill-rule="nonzero"></path>
                            <polygon points="0 0 24 0 24 24 0 24"></polygon>
                        </g>
                    </g>
                </g>
            </g>
        </g>
    </g>
</svg>